<svg width="50" height="55" viewBox="0 0 50 55" fill="none" xmlns="http://www.w3.org/2000/svg">
<path d="M41.961 16.3418C42.6604 16.3418 43.2466 16.0808 43.7197 15.5588C44.1928 15.0367 44.4293 14.3899 44.4293 13.6182C44.4293 12.8465 44.1928 12.1996 43.7197 11.6776C43.2466 11.1556 42.6604 10.8945 41.961 10.8945C41.2617 10.8945 40.6755 11.1556 40.2024 11.6776C39.7293 12.1996 39.4927 12.8465 39.4927 13.6182C39.4927 14.3899 39.7293 15.0367 40.2024 15.5588C40.6755 16.0808 41.2617 16.3418 41.961 16.3418ZM41.961 21.7891C39.863 21.7891 38.1043 21.006 36.685 19.44C35.2658 17.8739 34.5561 15.9333 34.5561 13.6182C34.5561 11.3485 35.2658 9.41924 36.685 7.83045C38.1043 6.24167 39.863 5.44727 41.961 5.44727C44.0179 5.44727 45.7663 6.24167 47.2061 7.83045C48.646 9.41924 49.3659 11.3485 49.3659 13.6182C49.3659 15.9333 48.646 17.8739 47.2061 19.44C45.7663 21.006 44.0179 21.7891 41.961 21.7891ZM24.683 13.6182C25.7114 13.6182 26.5856 13.2323 27.3055 12.4606C28.0254 11.6889 28.3854 10.713 28.3854 9.53273C28.3854 8.39788 28.0254 7.43326 27.3055 6.63886C26.5856 5.84447 25.7114 5.44727 24.683 5.44727C23.6134 5.44727 22.7289 5.84447 22.0295 6.63886C21.3302 7.43326 20.9805 8.39788 20.9805 9.53273C20.9805 10.713 21.3302 11.6889 22.0295 12.4606C22.7289 13.2323 23.6134 13.6182 24.683 13.6182ZM24.683 19.0655C22.2558 19.0655 20.2092 18.1462 18.5431 16.3078C16.877 14.4693 16.0439 12.211 16.0439 9.53273C16.0439 6.89988 16.877 4.65288 18.5431 2.79173C20.2092 0.930576 22.2558 0 24.683 0C27.069 0 29.1053 0.930576 30.792 2.79173C32.4787 4.65288 33.322 6.89988 33.322 9.53273C33.322 12.211 32.4787 14.4693 30.792 16.3078C29.1053 18.1462 27.069 19.0655 24.683 19.0655ZM14.8098 30.9814C14.8098 32.3432 15.468 33.932 16.7844 35.7477C18.1008 37.5635 20.7337 40.446 24.683 44.3953C28.55 40.5368 31.1622 37.6997 32.5198 35.8839C33.8774 34.0681 34.5561 32.434 34.5561 30.9814C34.5561 29.9373 34.2476 29.0521 33.6305 28.3258C33.0135 27.5995 32.2524 27.2364 31.3474 27.2364C30.7714 27.2364 30.2263 27.3725 29.7121 27.6449C29.1979 27.9173 28.7762 28.3031 28.4471 28.8025L25.4851 32.6836H23.8191L20.8571 28.8025C20.528 28.3031 20.1063 27.9173 19.5921 27.6449C19.0779 27.3725 18.5534 27.2364 18.0186 27.2364C17.0724 27.2364 16.301 27.5995 15.7045 28.3258C15.108 29.0521 14.8098 29.9373 14.8098 30.9814ZM9.87318 30.9814C9.87318 28.5755 10.6137 26.442 12.0946 24.5808C13.5756 22.7197 15.5503 21.7891 18.0186 21.7891C19.2938 21.7891 20.5177 22.1068 21.6901 22.7424C22.8626 23.3779 23.8602 24.2404 24.683 25.3298C25.5057 24.2404 26.493 23.3779 27.6449 22.7424C28.7968 22.1068 30.0309 21.7891 31.3474 21.7891C33.8156 21.7891 35.7903 22.731 37.2713 24.6149C38.7522 26.4987 39.4927 28.6209 39.4927 30.9814C39.4927 33.3872 38.7008 35.7591 37.117 38.0969C35.5332 40.4347 32.2935 44.0775 27.3981 49.0255L24.683 51.7491L21.9678 49.0255C16.9901 44.0321 13.7299 40.3779 12.1872 38.0628C10.6445 35.7477 9.87318 33.3872 9.87318 30.9814ZM7.40489 16.3418C8.10424 16.3418 8.69046 16.0808 9.16355 15.5588C9.63664 15.0367 9.87318 14.3899 9.87318 13.6182C9.87318 12.8465 9.63664 12.1996 9.16355 11.6776C8.69046 11.1556 8.10424 10.8945 7.40489 10.8945C6.70554 10.8945 6.11932 11.1556 5.64623 11.6776C5.17314 12.1996 4.93659 12.8465 4.93659 13.6182C4.93659 14.3899 5.17314 15.0367 5.64623 15.5588C6.11932 16.0808 6.70554 16.3418 7.40489 16.3418ZM24.8681 54.4727V49.0255H44.4293V29.96H37.1479V24.5127H44.4293C45.7869 24.5127 46.949 25.0461 47.9158 26.1129C48.8825 27.1796 49.3659 28.462 49.3659 29.96V54.4727H24.8681ZM4.93659 49.0255H24.8681V54.4727H0V29.96C0 28.462 0.47309 27.1796 1.41927 26.1129C2.36545 25.0461 3.53789 24.5127 4.93659 24.5127H12.2181V29.96H4.93659V49.0255ZM7.40489 21.7891C5.30683 21.7891 3.54817 21.006 2.12891 19.44C0.709635 17.8739 0 15.9333 0 13.6182C0 11.3485 0.709635 9.41924 2.12891 7.83045C3.54817 6.24167 5.30683 5.44727 7.40489 5.44727C9.4618 5.44727 11.2102 6.24167 12.65 7.83045C14.0899 9.41924 14.8098 11.3485 14.8098 13.6182C14.8098 15.9333 14.0899 17.8739 12.65 19.44C11.2102 21.006 9.4618 21.7891 7.40489 21.7891Z" fill="white"/>
</svg>
