<?xml version="1.0" encoding="utf-8"?>
<!-- Generator: Adobe Illustrator 27.5.0, SVG Export Plug-In . SVG Version: 6.00 Build 0)  -->
<svg version="1.1" xmlns="http://www.w3.org/2000/svg" xmlns:xlink="http://www.w3.org/1999/xlink" x="0px" y="0px"
	 viewBox="0 0 2200 2200" style="enable-background:new 0 0 2200 2200;" xml:space="preserve">
<g id="background">
	<rect style="fill:#FFFFFF;" width="2200" height="2200"/>
</g>
<g id="Objects">
	<g>
		<path style="fill:#C0D9DD;" d="M849.548,521.83h778.699c47.166,0,85.401,38.236,85.401,85.402v196.373H849.548V521.83z"/>
		<path style="fill:#2ABBDD;" d="M1835.5,752.664v898.612c0,53.024-42.984,96.008-96.008,96.008H460.508
			c-53.024,0-96.008-42.984-96.008-96.008V548.724c0-53.024,42.984-96.008,96.008-96.008h393.954
			c31.84,0,61.609,15.785,79.473,42.142l81.102,119.656c17.864,26.356,47.633,42.142,79.473,42.142h644.982
			C1792.516,656.656,1835.5,699.64,1835.5,752.664z"/>
		<path style="fill:#6ED4E5;" d="M519.992,1747.28H460.51c-53.03,0-96.01-42.98-96.01-96V548.72c0-53.02,42.98-96,96.01-96h59.482
			c-53.03,0-96.01,42.98-96.01,96v1102.56C423.982,1704.3,466.962,1747.28,519.992,1747.28z"/>
		<path style="fill:#2D96BA;" d="M1681.664,1747.28h59.482c53.03,0,96.01-42.955,96.01-95.945V752.601
			c0-52.99-42.98-95.945-96.01-95.945h-59.482c53.03,0,96.01,42.955,96.01,95.945v898.734
			C1777.674,1704.325,1734.694,1747.28,1681.664,1747.28z"/>
		<path style="fill:#FFFFFF;" d="M1437.79,1554.039H764.868c-76.423,0-122.236-84.922-80.268-148.79l336.461-512.046
			c37.938-57.737,122.598-57.737,160.537,0l336.461,512.046C1560.026,1469.117,1514.213,1554.039,1437.79,1554.039z"/>
		<path style="fill:#39666D;" d="M1139.391,1057.147l-14.935,237.011c-0.822,13.047-12.066,22.958-25.113,22.136
			c-12.076-0.761-21.462-10.452-22.142-22.235l-13.937-237.072c-1.236-21.025,14.806-39.071,35.831-40.307
			C1121.755,1015.185,1140.953,1034.517,1139.391,1057.147L1139.391,1057.147z"/>
		<circle style="fill:#39666D;" cx="1100.828" cy="1392.601" r="33.728"/>
	</g>
</g>
</svg>
