<svg width="17" height="21" viewBox="0 0 17 21" fill="none" xmlns="http://www.w3.org/2000/svg">
<path d="M1.19688 18.831C0.901358 18.9728 0.627995 18.9329 0.376797 18.7113C0.125599 18.4897 0 18.1926 0 17.8203V2.92572C0 2.69521 0.0554113 2.49129 0.166234 2.31398C0.277057 2.13666 0.428514 2.00367 0.620607 1.91502L5.31949 0L10.639 2.23418L14.7616 0.319169C15.0571 0.177316 15.3305 0.217212 15.5817 0.438858C15.8329 0.660503 15.9585 0.957508 15.9585 1.32987V10.2932C15.7368 9.88538 15.4745 9.51302 15.1716 9.17612C14.8687 8.83922 14.5399 8.54664 14.1853 8.2984V2.87252L11.5256 4.09601V7.44728C11.2153 7.44728 10.9123 7.47831 10.6168 7.54037C10.3213 7.60244 10.0331 7.69553 9.75239 7.81965V4.09601L6.20607 2.60655V16.517L1.19688 18.831ZM1.77316 16.2776L4.43291 15.0542V2.60655L1.77316 3.67045V16.2776ZM11.5256 15.9585C12.028 15.9585 12.4454 15.7811 12.7779 15.4265C13.1103 15.0719 13.2839 14.5399 13.2987 13.8307C13.3135 13.2278 13.1473 12.7224 12.8 12.3146C12.4528 11.9068 12.028 11.7029 11.5256 11.7029C11.0232 11.7029 10.602 11.9068 10.2622 12.3146C9.92232 12.7224 9.75239 13.2278 9.75239 13.8307C9.75239 14.4335 9.92232 14.9389 10.2622 15.3467C10.602 15.7545 11.0232 15.9585 11.5256 15.9585ZM11.5256 18.0863C10.5503 18.0863 9.71545 17.6696 9.02096 16.8362C8.32648 16.0028 7.97923 15.001 7.97923 13.8307C7.97923 12.6604 8.32648 11.6585 9.02096 10.8252C9.71545 9.99177 10.5503 9.57508 11.5256 9.57508C12.5008 9.57508 13.3357 9.99177 14.0301 10.8252C14.7246 11.6585 15.0719 12.6604 15.0719 13.8307C15.0719 14.2385 15.0312 14.6242 14.95 14.9877C14.8687 15.3512 14.7468 15.6925 14.5843 16.0117L16.845 18.7246L15.6038 20.2141L13.343 17.5011C13.0771 17.6962 12.7926 17.8424 12.4897 17.94C12.1868 18.0375 11.8654 18.0863 11.5256 18.0863Z" fill="white"/>
</svg>
