<svg width="22" height="19" viewBox="0 0 22 19" fill="none" xmlns="http://www.w3.org/2000/svg">
<path d="M2.09639 14.6747V6.28916V6.62982V2.09639V14.6747ZM2.09639 4.19277H18.8675V2.09639H2.09639V4.19277ZM10.0364 16.7711H2.09639C1.51988 16.7711 1.02636 16.5658 0.615813 16.1553C0.205271 15.7447 0 15.2512 0 14.6747V2.09639C0 1.51988 0.205271 1.02636 0.615813 0.615813C1.02636 0.205271 1.51988 0 2.09639 0H18.8675C19.444 0 19.9375 0.205271 20.348 0.615813C20.7586 1.02636 20.9639 1.51988 20.9639 2.09639V7.67801C20.3524 7.24126 19.6842 6.9006 18.9592 6.65602C18.2342 6.41145 17.4699 6.28916 16.6663 6.28916C15.6705 6.28916 14.7315 6.47696 13.8492 6.85256C12.967 7.22816 12.194 7.73916 11.5301 8.38554H2.09639V14.6747H9.40753C9.45994 15.0416 9.53855 15.3997 9.64337 15.7491C9.74819 16.0985 9.87922 16.4392 10.0364 16.7711ZM15.6181 18.8675L15.3036 17.2952C15.094 17.2078 14.8974 17.1161 14.714 17.02C14.5306 16.9239 14.3428 16.806 14.1506 16.6663L12.6307 17.138L11.5825 15.356L12.788 14.3078C12.753 14.0807 12.7355 13.8536 12.7355 13.6265C12.7355 13.3994 12.753 13.1723 12.788 12.9452L11.5825 11.897L12.6307 10.1151L14.1506 10.5867C14.3428 10.447 14.5306 10.3291 14.714 10.233C14.8974 10.1369 15.094 10.0452 15.3036 9.95783L15.6181 8.38554H17.7145L18.0289 9.95783C18.2386 10.0452 18.4351 10.1369 18.6185 10.233C18.802 10.3291 18.9898 10.447 19.1819 10.5867L20.7018 10.1151L21.75 11.897L20.5446 12.9452C20.5795 13.1723 20.597 13.3994 20.597 13.6265C20.597 13.8536 20.5795 14.0807 20.5446 14.3078L21.75 15.356L20.7018 17.138L19.1819 16.6663C18.9898 16.806 18.802 16.9239 18.6185 17.02C18.4351 17.1161 18.2386 17.2078 18.0289 17.2952L17.7145 18.8675H15.6181ZM16.6663 15.7229C17.2428 15.7229 17.7363 15.5176 18.1468 15.1071C18.5574 14.6965 18.7626 14.203 18.7626 13.6265C18.7626 13.05 18.5574 12.5565 18.1468 12.1459C17.7363 11.7354 17.2428 11.5301 16.6663 11.5301C16.0898 11.5301 15.5962 11.7354 15.1857 12.1459C14.7752 12.5565 14.5699 13.05 14.5699 13.6265C14.5699 14.203 14.7752 14.6965 15.1857 15.1071C15.5962 15.5176 16.0898 15.7229 16.6663 15.7229Z" fill="white"/>
</svg>
