<svg width="19" height="23" viewBox="0 0 19 23" fill="none" xmlns="http://www.w3.org/2000/svg">
<path d="M15.8571 13.2143V6.34286L11.4524 2.64286L7.04762 6.34286V7.92857H5.28571V5.28571L11.4524 0L17.619 5.28571V13.2143H15.8571ZM11.8929 6.87143H12.7738V5.81429H11.8929V6.87143ZM10.131 6.87143H11.0119V5.81429H10.131V6.87143ZM11.8929 8.98571H12.7738V7.92857H11.8929V8.98571ZM10.131 8.98571H11.0119V7.92857H10.131V8.98571ZM5.28571 17.9714L11.4083 19.98L16.65 18.0243C16.5766 17.8657 16.4701 17.7292 16.3307 17.6146C16.1912 17.5001 16.0333 17.4429 15.8571 17.4429H11.4083C11.0119 17.4429 10.6962 17.4252 10.4613 17.39C10.2264 17.3548 9.98413 17.2843 9.73452 17.1786L7.68631 16.3593L8.17083 14.2979L9.95476 15.0114C10.2044 15.0995 10.498 15.17 10.8357 15.2229C11.1734 15.2757 11.6726 15.311 12.3333 15.3286C12.3333 15.1348 12.2856 14.9498 12.1902 14.7736C12.0947 14.5974 11.981 14.4829 11.8488 14.43L6.69524 12.1571H5.28571V17.9714ZM0 21.6714V10.0429H6.69524C6.79802 10.0429 6.90079 10.0561 7.00357 10.0825C7.10635 10.1089 7.20179 10.1398 7.28988 10.175L12.4655 12.4743C12.95 12.6857 13.3428 13.0557 13.6438 13.5843C13.9447 14.1129 14.0952 14.6943 14.0952 15.3286H15.8571C16.5913 15.3286 17.2153 15.6193 17.7292 16.2007C18.2431 16.7821 18.5 17.5486 18.5 18.5V19.5571L11.4524 22.2L5.28571 20.1386V21.6714H0ZM1.7619 19.5571H3.52381V12.1571H1.7619V19.5571Z" fill="white"/>
</svg>
