<svg width="19" height="22" viewBox="0 0 19 22" fill="none" xmlns="http://www.w3.org/2000/svg">
<path d="M1.867 21.2838C1.35357 21.2838 0.914052 21.0644 0.548431 20.6257C0.18281 20.1869 0 19.6595 0 19.0434V6.7212C0 6.10509 0.18281 5.57766 0.548431 5.13892C0.914052 4.70017 1.35357 4.4808 1.867 4.4808H5.601V2.2404C5.601 1.62429 5.78381 1.09686 6.14943 0.658118C6.51505 0.219373 6.95458 0 7.468 0H11.202C11.7154 0 12.1549 0.219373 12.5206 0.658118C12.8862 1.09686 13.069 1.62429 13.069 2.2404V4.4808H16.803C17.3164 4.4808 17.7559 4.70017 18.1216 5.13892C18.4872 5.57766 18.67 6.10509 18.67 6.7212V19.0434C18.67 19.6595 18.4872 20.1869 18.1216 20.6257C17.7559 21.0644 17.3164 21.2838 16.803 21.2838H1.867ZM7.468 4.4808H11.202V2.2404H7.468V4.4808ZM16.803 14.5626H12.1355V16.803H6.5345V14.5626H1.867V19.0434H16.803V14.5626ZM8.4015 14.5626H10.2685V12.3222H8.4015V14.5626ZM1.867 12.3222H6.5345V10.0818H12.1355V12.3222H16.803V6.7212H1.867V12.3222Z" fill="white"/>
</svg>
