<svg width="19" height="21" viewBox="0 0 19 21" fill="none" xmlns="http://www.w3.org/2000/svg">
<path d="M3.16667 21C2.28704 21 1.53935 20.6937 0.923611 20.0812C0.30787 19.4688 0 18.725 0 17.85V14.7H3.16667V0L4.75 1.575L6.33333 0L7.91667 1.575L9.5 0L11.0833 1.575L12.6667 0L14.25 1.575L15.8333 0L17.4167 1.575L19 0V17.85C19 18.725 18.6921 19.4688 18.0764 20.0812C17.4606 20.6937 16.713 21 15.8333 21H3.16667ZM15.8333 18.9C16.1324 18.9 16.3831 18.7994 16.5854 18.5981C16.7877 18.3969 16.8889 18.1475 16.8889 17.85V3.15H5.27778V14.7H14.7778V17.85C14.7778 18.1475 14.8789 18.3969 15.0813 18.5981C15.2836 18.7994 15.5343 18.9 15.8333 18.9ZM6.33333 7.35V5.25H12.6667V7.35H6.33333ZM6.33333 10.5V8.4H12.6667V10.5H6.33333ZM14.7778 7.35C14.4787 7.35 14.228 7.24937 14.0257 7.04812C13.8234 6.84687 13.7222 6.5975 13.7222 6.3C13.7222 6.0025 13.8234 5.75312 14.0257 5.55187C14.228 5.35062 14.4787 5.25 14.7778 5.25C15.0769 5.25 15.3275 5.35062 15.5299 5.55187C15.7322 5.75312 15.8333 6.0025 15.8333 6.3C15.8333 6.5975 15.7322 6.84687 15.5299 7.04812C15.3275 7.24937 15.0769 7.35 14.7778 7.35ZM14.7778 10.5C14.4787 10.5 14.228 10.3994 14.0257 10.1981C13.8234 9.99687 13.7222 9.7475 13.7222 9.45C13.7222 9.1525 13.8234 8.90312 14.0257 8.70187C14.228 8.50062 14.4787 8.4 14.7778 8.4C15.0769 8.4 15.3275 8.50062 15.5299 8.70187C15.7322 8.90312 15.8333 9.1525 15.8333 9.45C15.8333 9.7475 15.7322 9.99687 15.5299 10.1981C15.3275 10.3994 15.0769 10.5 14.7778 10.5ZM3.16667 18.9H12.6667V16.8H2.11111V17.85C2.11111 18.1475 2.21227 18.3969 2.41458 18.5981C2.6169 18.7994 2.86759 18.9 3.16667 18.9Z" fill="white"/>
</svg>
